<?xml version="1.0" encoding="UTF-8"?>
<svg xmlns="http://www.w3.org/2000/svg" version="1.1" viewBox="0 0 120 120">
  <defs>
    <style>
      .cls-1 {
        fill: #bb3880;
      }
    </style>
  </defs>
  <!-- Generator: Adobe Illustrator 28.6.0, SVG Export Plug-In . SVG Version: 1.2.0 Build 709)  -->
  <g>
    <g id="Layer_1">
      <g id="Book_icon">
        <path id="Vector" class="cls-1" d="M36.6,96.2c8.3,0,13.9,3.1,16.4,4.9.9.5,3.5,2,4,2.1V27.2c-3.3-6.1-12.9-11-22.8-11s-23.2,7.2-25.6,12.1v70.9c0,3.3,2,4.6,4.3,4.6s3.2-.7,4.4-1.7c3-2.7,9.9-5.9,19.3-5.9ZM83.4,96.2c9.3,0,16.3,3.3,19.3,5.9,1.2,1,2.4,1.7,4.3,1.7s4.3-1.3,4.3-4.6V28.3c-2.4-4.9-13-12.1-25.5-12.1s-19.5,4.9-22.8,11v76c.6,0,3.1-1.6,4.1-2.2,2.4-1.8,8-4.9,16.3-4.9Z"/>
      </g>
    </g>
  </g>
</svg>