<svg width="120" height="120" viewBox="0 0 120 120" fill="none" xmlns="http://www.w3.org/2000/svg">
<g id="Book icon">
<path id="Vector" d="M36.6214 96.2101C44.9571 96.2101 50.5328 99.3258 52.9929 101.083C53.8971 101.584 56.46 103.091 57.0107 103.14V27.2058C53.7471 21.1286 44.1536 16.2086 34.2107 16.2086C21.6536 16.2086 11.0079 23.4408 8.64642 28.3115V99.2272C8.64642 102.542 10.605 103.798 12.9664 103.798C14.8736 103.798 16.1293 103.144 17.3357 102.139C20.2993 99.4779 27.2786 96.2101 36.6214 96.2101ZM83.43 96.2122C92.7707 96.2122 99.7028 99.4779 102.716 102.139C103.869 103.093 105.126 103.796 107.034 103.796C109.395 103.796 111.354 102.542 111.354 99.2272V28.3072C108.992 23.4343 98.3957 16.2043 85.8386 16.2043C75.8957 16.2043 66.3021 21.1243 63.0386 27.2015V103.243C63.5914 103.191 66.1521 101.636 67.1057 101.083C69.5164 99.3258 75.0921 96.2122 83.43 96.2122Z" fill="white"/>
</g>
</svg>
